<?xml version="1.0" encoding="utf-8"?>
<!-- Generator: Adobe Illustrator 15.0.0, SVG Export Plug-In . SVG Version: 6.00 Build 0)  -->
<!DOCTYPE svg PUBLIC "-//W3C//DTD SVG 1.1//EN" "http://www.w3.org/Graphics/SVG/1.1/DTD/svg11.dtd">
<svg version="1.1" id="Layer_1" xmlns="http://www.w3.org/2000/svg" xmlns:xlink="http://www.w3.org/1999/xlink" x="0px" y="0px"
	 width="12px" height="20px" viewBox="0 0 12 20" enable-background="new 0 0 12 20" xml:space="preserve">
<path fill="#86A200" d="M3.604,10.008c2.521,2.563,5,5.083,7.474,7.604c0.713,0.725,0.712,0.849,0,1.551
	c-1.141,1.123-1.139,1.123-2.276-0.037C6.024,16.3,3.247,13.477,0.47,10.648c-0.629-0.641-0.628-0.782,0.01-1.409
	C3.456,6.31,6.434,3.383,9.414,0.456c0.629-0.618,0.77-0.61,1.408,0.034c1.18,1.19,1.178,1.186-0.021,2.369
	c-2.271,2.243-4.539,4.483-6.807,6.73C3.875,9.708,3.763,9.836,3.604,10.008z"/>
</svg>
