<?xml version="1.0" encoding="utf-8"?>
<!-- Generator: Adobe Illustrator 15.0.0, SVG Export Plug-In  -->
<!DOCTYPE svg PUBLIC "-//W3C//DTD SVG 1.1//EN" "http://www.w3.org/Graphics/SVG/1.1/DTD/svg11.dtd" [
	<!ENTITY ns_flows "http://ns.adobe.com/Flows/1.0/">
]>
<svg version="1.1"
	 xmlns="http://www.w3.org/2000/svg" xmlns:xlink="http://www.w3.org/1999/xlink" xmlns:a="http://ns.adobe.com/AdobeSVGViewerExtensions/3.0/"
	 x="0px" y="0px" width="12px" height="20px" viewBox="-0.157 0 12 20" enable-background="new -0.157 0 12 20"
	 xml:space="preserve">
<defs>
</defs>
<path fill="#86A200" d="M8.079,9.937c-2.542-2.542-5.042-5.04-7.538-7.538C-0.178,1.68-0.178,1.556,0.528,0.848
	c1.13-1.133,1.129-1.132,2.277,0.017c2.801,2.802,5.603,5.603,8.403,8.405c0.635,0.634,0.635,0.776,0.002,1.409
	c-2.951,2.954-5.904,5.907-8.858,8.859c-0.624,0.623-0.765,0.617-1.409-0.021c-1.189-1.18-1.187-1.176,0.001-2.369
	c2.251-2.261,4.5-4.522,6.749-6.788C7.812,10.24,7.921,10.11,8.079,9.937z"/>
</svg>
