<?xml version="1.0" encoding="utf-8"?>
<!-- Generator: Adobe Illustrator 15.0.0, SVG Export Plug-In  -->
<!DOCTYPE svg PUBLIC "-//W3C//DTD SVG 1.1//EN" "http://www.w3.org/Graphics/SVG/1.1/DTD/svg11.dtd" [
	<!ENTITY ns_flows "http://ns.adobe.com/Flows/1.0/">
]>
<svg version="1.1"
	 xmlns="http://www.w3.org/2000/svg" xmlns:xlink="http://www.w3.org/1999/xlink" xmlns:a="http://ns.adobe.com/AdobeSVGViewerExtensions/3.0/"
	 x="0px" y="0px" width="12px" height="20px" viewBox="0 0 12 20" enable-background="new 0 0 12 20" xml:space="preserve">
<defs>
</defs>
<path fill="#AABC66" d="M3.604,10.008c2.521,2.563,5,5.083,7.474,7.604c0.713,0.726,0.712,0.85,0,1.552
	c-1.141,1.123-1.139,1.123-2.276-0.037c-2.778-2.826-5.555-5.649-8.332-8.478c-0.629-0.642-0.628-0.782,0.01-1.409
	c2.976-2.929,5.954-5.856,8.934-8.783c0.629-0.618,0.77-0.61,1.408,0.034c1.18,1.19,1.178,1.186-0.021,2.369
	C8.53,5.103,6.263,7.342,3.995,9.589C3.875,9.708,3.764,9.836,3.604,10.008z"/>
</svg>
